<svg width="14" height="14" viewBox="0 0 14 14" fill="none" xmlns="http://www.w3.org/2000/svg">
<g clip-path="url(#clip0_143_374)">
<mask id="mask0_143_374" style="mask-type:luminance" maskUnits="userSpaceOnUse" x="0" y="0" width="14" height="14">
<path d="M13.3086 0.189453H0.308594V13.1895H13.3086V0.189453Z" fill="white"/>
</mask>
<g mask="url(#mask0_143_374)">
<path d="M6.80599 0.730469C5.62754 0.730469 4.47556 1.07992 3.49572 1.73463C2.51588 2.38934 1.75218 3.31991 1.30121 4.40865C0.850238 5.49739 0.732243 6.69542 0.962147 7.85122C1.19205 9.00702 1.75953 10.0687 2.59281 10.902C3.4261 11.7353 4.48778 12.3028 5.64358 12.5327C6.79938 12.7626 7.9974 12.6446 9.08615 12.1936C10.1749 11.7426 11.1054 10.9789 11.7601 9.99908C12.4148 9.01924 12.7643 7.86725 12.7643 6.68881C12.7624 5.10913 12.1341 3.59469 11.0171 2.47769C9.90011 1.36069 8.38567 0.732333 6.80599 0.730469ZM6.80599 11.5638C5.84181 11.5638 4.89928 11.2779 4.09759 10.7422C3.2959 10.2066 2.67106 9.44518 2.30208 8.55439C1.9331 7.6636 1.83656 6.6834 2.02466 5.73774C2.21277 4.79208 2.67706 3.92344 3.35885 3.24166C4.04063 2.55988 4.90927 2.09558 5.85493 1.90748C6.80058 1.71937 7.78078 1.81592 8.67157 2.18489C9.56236 2.55387 10.3237 3.17871 10.8594 3.9804C11.395 4.78209 11.681 5.72462 11.681 6.68881C11.6794 7.98125 11.1653 9.22031 10.2514 10.1342C9.3375 11.0481 8.09844 11.5622 6.80599 11.5638Z" fill="white" fill-opacity="0.6"/>
<path d="M7.34896 6.46389V3.43814C7.34896 3.29449 7.29189 3.15671 7.19031 3.05513C7.08872 2.95355 6.95095 2.89648 6.80729 2.89648C6.66363 2.89648 6.52586 2.95355 6.42427 3.05513C6.32269 3.15671 6.26562 3.29449 6.26562 3.43814V6.68814C6.26566 6.83179 6.32275 6.96954 6.42434 7.0711L8.04934 8.69611C8.15149 8.79478 8.28833 8.84937 8.43035 8.84813C8.57237 8.84691 8.70823 8.78993 8.80866 8.6895C8.90909 8.58908 8.96605 8.45323 8.96728 8.3112C8.96852 8.16918 8.91392 8.03235 8.81525 7.93019L7.34896 6.46389Z" fill="white" fill-opacity="0.6"/>
</g>
</g>
<defs>
<clipPath id="clip0_143_374">
<rect width="13" height="13" fill="white" transform="translate(0.308594 0.189453)"/>
</clipPath>
</defs>
</svg>
