<svg width="12" height="13" viewBox="0 0 12 13" fill="none" xmlns="http://www.w3.org/2000/svg">
<g clip-path="url(#clip0_143_369)">
<path fill-rule="evenodd" clip-rule="evenodd" d="M7.75 2.02214V1.4388C7.75 1.1168 8.01133 0.855469 8.33333 0.855469C8.65533 0.855469 8.91667 1.1168 8.91667 1.4388V2.02214C10.2052 2.02214 11.25 3.06689 11.25 4.35547V10.1888C11.25 11.4774 10.2052 12.5222 8.91667 12.5222C7.24833 12.5222 4.75108 12.5222 3.08333 12.5222C1.79475 12.5222 0.75 11.4774 0.75 10.1888V4.35547C0.75 3.06689 1.79475 2.02214 3.08333 2.02214V1.4388C3.08333 1.1168 3.34467 0.855469 3.66667 0.855469C3.98867 0.855469 4.25 1.1168 4.25 1.4388V2.02214H7.75ZM10.0833 6.68881H1.91667V10.1888C1.91667 10.8328 2.43875 11.3555 3.08333 11.3555H8.91667C9.56067 11.3555 10.0833 10.8328 10.0833 10.1888V6.68881ZM8.91667 3.18881V3.77214C8.91667 4.09414 8.65533 4.35547 8.33333 4.35547C8.01133 4.35547 7.75 4.09414 7.75 3.77214V3.18881H4.25V3.77214C4.25 4.09414 3.98867 4.35547 3.66667 4.35547C3.34467 4.35547 3.08333 4.09414 3.08333 3.77214V3.18881C2.43875 3.18881 1.91667 3.71089 1.91667 4.35547V5.52214H10.0833V4.35547C10.0833 3.71089 9.56067 3.18881 8.91667 3.18881Z" fill="white" fill-opacity="0.6"/>
</g>
<defs>
<clipPath id="clip0_143_369">
<rect width="12" height="12" fill="white" transform="translate(0 0.689453)"/>
</clipPath>
</defs>
</svg>
