<svg width="29" height="28" viewBox="0 0 29 28" fill="none" xmlns="http://www.w3.org/2000/svg">
<path d="M25.1808 23.0311C27.3234 20.5098 28.4999 17.3087 28.4999 13.9999C28.4999 10.6911 27.3234 7.4901 25.1808 4.96876L26.1841 3.96543C26.4029 3.74651 26.5257 3.44966 26.5256 3.14018C26.5255 2.8307 26.4024 2.53394 26.1835 2.31518C25.9646 2.09642 25.6677 1.97358 25.3583 1.97369C25.0488 1.9738 24.752 2.09685 24.5333 2.31576L23.5299 3.31909C21.0086 1.17642 17.8076 0 14.4988 0C11.19 0 7.98893 1.17642 5.46759 3.31909L4.46426 2.31576C4.24407 2.10339 3.94929 1.986 3.64339 1.98888C3.33749 1.99175 3.04496 2.11465 2.8288 2.33112C2.61264 2.54758 2.49015 2.84028 2.48771 3.14619C2.48527 3.45209 2.60308 3.74671 2.81576 3.96659L3.81909 4.96993C1.67642 7.49127 0.5 10.6923 0.5 14.0011C0.5 17.3099 1.67642 20.5109 3.81909 23.0323L2.81576 24.0356C2.70441 24.1433 2.61562 24.2721 2.55458 24.4145C2.49354 24.5569 2.46147 24.71 2.46023 24.8649C2.459 25.0198 2.48862 25.1734 2.54739 25.3167C2.60615 25.4601 2.69287 25.5903 2.80249 25.6997C2.91211 25.8092 3.04243 25.8957 3.18584 25.9543C3.32926 26.0128 3.48291 26.0422 3.63782 26.0408C3.79272 26.0393 3.94579 26.007 4.08808 25.9458C4.23038 25.8846 4.35905 25.7956 4.46659 25.6841L5.46993 24.6808C7.99127 26.8234 11.1923 27.9999 14.5011 27.9999C17.8099 27.9999 21.0109 26.8234 23.5323 24.6808L24.5356 25.6841C24.7558 25.8965 25.0506 26.0138 25.3565 26.011C25.6624 26.0081 25.9549 25.8852 26.171 25.6687C26.3872 25.4523 26.5097 25.1596 26.5121 24.8537C26.5146 24.5478 26.3968 24.2531 26.1841 24.0333L25.1808 23.0311ZM26.1666 13.9999C26.1687 16.6908 25.2359 19.2988 23.5276 21.3779L19.3614 17.2118C19.9951 16.2604 20.3332 15.143 20.3332 13.9999C20.3332 12.8569 19.9951 11.7394 19.3614 10.7881L23.5276 6.62193C25.2359 8.70101 26.1687 11.309 26.1666 13.9999ZM10.9999 13.9999C10.9999 13.3077 11.2052 12.631 11.5898 12.0554C11.9744 11.4799 12.521 11.0313 13.1605 10.7663C13.8001 10.5014 14.5038 10.4321 15.1827 10.5672C15.8617 10.7022 16.4853 11.0356 16.9748 11.5251C17.4643 12.0145 17.7976 12.6382 17.9327 13.3171C18.0677 13.996 17.9984 14.6998 17.7335 15.3393C17.4686 15.9789 17.02 16.5255 16.4444 16.9101C15.8688 17.2947 15.1922 17.4999 14.4999 17.4999C13.5717 17.4999 12.6814 17.1312 12.0251 16.4748C11.3687 15.8184 10.9999 14.9282 10.9999 13.9999ZM14.4999 2.33326C17.1908 2.33111 19.7988 3.26397 21.8779 4.97226L17.7118 9.13843C16.7604 8.50476 15.643 8.16666 14.4999 8.16666C13.3569 8.16666 12.2394 8.50476 11.2881 9.13843L7.12193 4.97226C9.20101 3.26397 11.809 2.33111 14.4999 2.33326ZM2.83326 13.9999C2.83111 11.309 3.76397 8.70101 5.47226 6.62193L9.63843 10.7881C9.00476 11.7394 8.66666 12.8569 8.66666 13.9999C8.66666 15.143 9.00476 16.2604 9.63843 17.2118L5.47226 21.3779C3.76397 19.2988 2.83111 16.6908 2.83326 13.9999ZM14.4999 25.6666C11.809 25.6687 9.20101 24.7359 7.12193 23.0276L11.2881 18.8614C12.2394 19.4951 13.3569 19.8332 14.4999 19.8332C15.643 19.8332 16.7604 19.4951 17.7118 18.8614L21.8779 23.0276C19.7988 24.7359 17.1908 25.6687 14.4999 25.6666Z" fill="#ED1A3A"/>
</svg>
