<svg width="31" height="30" viewBox="0 0 31 30" fill="none" xmlns="http://www.w3.org/2000/svg">
<path d="M12.5469 14.8128L1.31692 18.8791C0.915675 19.0253 0.615675 19.3653 0.521925 19.7828C0.429425 20.2003 0.555675 20.6366 0.859425 20.9378L4.35068 24.4291L0.875675 27.9053C0.386925 28.3941 0.386925 29.1841 0.875675 29.6728C1.11943 29.9166 1.43943 30.0391 1.75943 30.0391C2.07943 30.0391 2.39943 29.9166 2.64318 29.6728L6.11818 26.1978L9.60943 29.6891C9.84568 29.9253 10.1644 30.0553 10.4932 30.0553C10.5832 30.0553 10.6757 30.0453 10.7644 30.0253C11.1819 29.9328 11.5232 29.6328 11.6694 29.2303L15.7369 18.0003L15.7444 17.9791C16.0557 17.0691 15.8257 16.0816 15.1457 15.4016C14.4669 14.7228 13.4819 14.4928 12.5494 14.8116L12.5469 14.8128ZM9.98693 26.5316L4.01568 20.5603L13.3794 17.1628L9.98693 26.5316ZM30.5094 12.5391C30.5094 19.4316 24.9019 25.0391 18.0094 25.0391C17.3182 25.0391 16.7594 24.4791 16.7594 23.7891C16.7594 23.0991 17.3182 22.5391 18.0094 22.5391C23.5232 22.5391 28.0094 18.0528 28.0094 12.5391C28.0094 7.02531 23.5232 2.53906 18.0094 2.53906C12.4957 2.53906 8.00943 7.02531 8.00943 12.5391C8.00943 13.2291 7.45068 13.7891 6.75943 13.7891C6.06818 13.7891 5.50943 13.2291 5.50943 12.5391C5.50943 5.64656 11.1169 0.0390625 18.0094 0.0390625C24.9019 0.0390625 30.5094 5.64656 30.5094 12.5391ZM23.0094 12.5391C23.0094 9.78156 20.7669 7.53906 18.0094 7.53906C15.9807 7.53906 14.1669 8.75031 13.3894 10.6241C13.1232 11.2616 12.3919 11.5628 11.7544 11.2991C11.1169 11.0353 10.8144 10.3028 11.0794 9.66531C12.2469 6.85406 14.9657 5.03906 18.0094 5.03906C22.1457 5.03906 25.5094 8.40281 25.5094 12.5391C25.5094 15.5853 23.6919 18.3053 20.8782 19.4703C20.7219 19.5353 20.5594 19.5666 20.3994 19.5666C19.9082 19.5666 19.4432 19.2753 19.2444 18.7941C18.9807 18.1566 19.2832 17.4253 19.9207 17.1616C21.7969 16.3841 23.0094 14.5703 23.0094 12.5403V12.5391Z" fill="#ED1A3A"/>
</svg>
