<svg width="25" height="28" viewBox="0 0 25 28" fill="none" xmlns="http://www.w3.org/2000/svg">
<path d="M1.64973e-05 14.1518V18.4035H1.94362V28H22.8981V18.4035H24.8417V14.1518C24.8442 13.0497 24.5597 11.966 24.0162 11.0072C23.4727 10.0485 22.6889 9.24778 21.742 8.68392C20.795 8.12005 19.7176 7.81247 18.6157 7.79144C17.5138 7.77041 16.4255 8.03665 15.4577 8.56397C14.526 8.05629 13.4819 7.79029 12.4208 7.79029C11.3598 7.79029 10.3157 8.05629 9.38396 8.56397C8.41622 8.03665 7.32784 7.77041 6.22595 7.79144C5.12406 7.81247 4.04664 8.12005 3.09972 8.68392C2.15279 9.24778 1.36901 10.0485 0.825506 11.0072C0.282 11.966 -0.00249593 13.0497 1.64973e-05 14.1518ZM18.4946 9.62688C19.6922 9.63484 20.8385 10.1141 21.6854 10.961C22.5323 11.8079 23.0116 12.9542 23.0195 14.1518V16.551H21.0759V26.1779H16.8243V18.4035H18.7679V14.1518C18.768 12.5508 18.1602 11.0094 17.0673 9.83946C17.5286 9.6927 18.0105 9.62093 18.4946 9.62688ZM12.4208 9.62688C13.6185 9.63484 14.7648 10.1141 15.6117 10.961C16.4585 11.8079 16.9378 12.9542 16.9458 14.1518V16.551H15.0022V26.1779H13.3319V19.3753H11.5098V26.1779H9.8395V16.5813H7.89589V14.1518C7.90385 12.9542 8.38314 11.8079 9.23001 10.961C10.0769 10.1141 11.2232 9.63484 12.4208 9.62688ZM6.34709 9.62688C6.821 9.62415 7.2924 9.69588 7.74405 9.83946C6.65114 11.0094 6.04329 12.5508 6.0434 14.1518V18.4035H7.987V26.1779H3.73537V16.5813H1.82214V14.1518C1.8301 12.9542 2.30939 11.8079 3.15626 10.961C4.00314 10.1141 5.14945 9.63484 6.34709 9.62688Z" fill="#ED1A3A"/>
<path d="M9.3838 5.64859C9.71622 6.14974 10.1675 6.56083 10.6974 6.8452C11.2273 7.12958 11.8193 7.27841 12.4207 7.27841C13.0221 7.27841 13.6141 7.12958 14.144 6.8452C14.6739 6.56083 15.1251 6.14974 15.4576 5.64859C15.8887 6.30328 16.5195 6.80149 17.2562 7.06928C17.993 7.33706 18.7964 7.36015 19.5473 7.1351C20.2982 6.91005 20.9565 6.44887 21.4246 5.82002C21.8926 5.19116 22.1454 4.42815 22.1454 3.64425C22.1454 2.86035 21.8926 2.09734 21.4246 1.46849C20.9565 0.83963 20.2982 0.378451 19.5473 0.153404C18.7964 -0.0716421 17.993 -0.0485595 17.2562 0.219226C16.5195 0.487012 15.8887 0.985226 15.4576 1.63991C15.1251 1.13877 14.6739 0.727677 14.144 0.4433C13.6141 0.158922 13.0221 0.0100977 12.4207 0.0100977C11.8193 0.0100977 11.2273 0.158922 10.6974 0.4433C10.1675 0.727677 9.71622 1.13877 9.3838 1.63991C8.95025 0.988685 8.31864 0.494265 7.58236 0.229769C6.84608 -0.0347272 6.04423 -0.0552575 5.29538 0.171214C4.54653 0.397685 3.89044 0.859134 3.42413 1.48732C2.95782 2.11551 2.70605 2.87709 2.70605 3.65944C2.70605 4.44178 2.95782 5.20336 3.42413 5.83155C3.89044 6.45974 4.54653 6.92119 5.29538 7.14766C6.04423 7.37413 6.84608 7.3536 7.58236 7.0891C8.31864 6.82461 8.95025 6.33019 9.3838 5.67896V5.64859ZM18.4944 1.82213C18.8548 1.82213 19.2071 1.92899 19.5068 2.12921C19.8064 2.32943 20.0399 2.614 20.1779 2.94695C20.3158 3.2799 20.3519 3.64627 20.2815 3.99973C20.2112 4.35319 20.0377 4.67786 19.7829 4.93269C19.528 5.18752 19.2034 5.36106 18.8499 5.43137C18.4965 5.50167 18.1301 5.46559 17.7971 5.32768C17.4642 5.18976 17.1796 4.95622 16.9794 4.65657C16.7792 4.35692 16.6723 4.00463 16.6723 3.64425C16.6723 3.16099 16.8643 2.69753 17.206 2.35581C17.5477 2.0141 18.0112 1.82213 18.4944 1.82213ZM12.4207 1.82213C12.7811 1.82213 13.1333 1.92899 13.433 2.12921C13.7326 2.32943 13.9662 2.614 14.1041 2.94695C14.242 3.2799 14.2781 3.64627 14.2078 3.99973C14.1375 4.35319 13.9639 4.67786 13.7091 4.93269C13.4543 5.18752 13.1296 5.36106 12.7762 5.43137C12.4227 5.50167 12.0563 5.46559 11.7234 5.32768C11.3904 5.18976 11.1059 4.95622 10.9056 4.65657C10.7054 4.35692 10.5986 4.00463 10.5986 3.64425C10.5986 3.16099 10.7905 2.69753 11.1322 2.35581C11.474 2.0141 11.9374 1.82213 12.4207 1.82213ZM4.5248 3.64425C4.5248 3.28387 4.63167 2.93158 4.83188 2.63193C5.0321 2.33229 5.31668 2.09874 5.64963 1.96083C5.98258 1.82291 6.34895 1.78683 6.7024 1.85714C7.05586 1.92744 7.38053 2.10099 7.63536 2.35581C7.89019 2.61064 8.06373 2.93531 8.13404 3.28877C8.20435 3.64223 8.16826 4.0086 8.03035 4.34155C7.89244 4.6745 7.65889 4.95908 7.35924 5.15929C7.0596 5.35951 6.70731 5.46638 6.34693 5.46638C5.86367 5.46638 5.4002 5.2744 5.05849 4.93269C4.71677 4.59097 4.5248 4.12751 4.5248 3.64425Z" fill="#ED1A3A"/>
</svg>
