<svg width="28" height="28" viewBox="0 0 28 28" fill="none" xmlns="http://www.w3.org/2000/svg">
<path d="M14.0007 0C6.27585 0 0 6.27583 0 14.0006C0 21.7255 6.27585 28 14.0007 28C21.7255 28 28 21.7255 28 14.0006C28 6.27583 21.7255 0 14.0007 0ZM16.7888 1.71879C19.9827 2.43899 22.7147 4.36199 24.4776 6.99693H20.4493C19.7742 5.3015 18.9063 3.9628 18.0263 2.95081C17.6088 2.47071 17.1904 2.06799 16.7888 1.71879ZM11.2057 1.72016C10.804 2.06912 10.3853 2.47129 9.96825 2.95089C9.08827 3.96288 8.22179 5.30152 7.54798 6.99693H3.51829C5.28138 4.36342 8.0135 2.44132 11.2057 1.72016ZM14.698 1.87472C15.3038 2.2653 16.1237 2.89556 16.972 3.87113C17.6671 4.67051 18.3598 5.70552 18.9369 6.99693H14.698V1.87472ZM13.2965 1.87739V6.99685H9.06304C9.64023 5.70544 10.3329 4.67043 11.028 3.87105C11.8733 2.89892 12.6912 2.26834 13.2965 1.87739ZM2.71836 8.39861H7.06118C6.6457 9.81235 6.37027 11.4399 6.31459 13.3034H1.43029C1.52632 11.5468 1.97676 9.88998 2.71836 8.39861ZM8.53112 8.39861H13.2965V13.3034H7.71343C7.77321 11.384 8.08532 9.77334 8.53112 8.39861ZM14.698 8.39861H19.4689C19.9147 9.77334 20.2268 11.384 20.2866 13.3034H14.698V8.39861ZM20.9374 8.39861H25.2775C26.0186 9.88998 26.4683 11.5468 26.5642 13.3034H21.6854C21.6296 11.4399 21.3538 9.81235 20.9374 8.39861ZM1.43029 14.7037H6.31459C6.37067 16.5652 6.64602 18.1905 7.06118 19.6029H2.71973C1.97872 18.1131 1.52707 16.4584 1.43029 14.7037ZM7.7148 14.7037H13.2965V19.6029H8.53112C8.08563 18.2294 7.77499 16.6211 7.7148 14.7037ZM14.698 14.7037H20.2852C20.225 16.6211 19.9144 18.2294 19.4689 19.6029H14.698V14.7037ZM21.6854 14.7037H26.5642C26.4675 16.4584 26.0166 18.1131 25.2761 19.6029H20.9374C21.3535 18.1905 21.6292 16.5652 21.6854 14.7037ZM3.51691 21.0031H7.54798C8.22186 22.6991 9.08806 24.037 9.96825 25.0493C10.3853 25.5288 10.804 25.931 11.2057 26.2799C8.0129 25.5586 5.27997 23.6374 3.51691 21.0031ZM9.06304 21.0031H13.2965V26.1241C12.6912 25.7331 11.8733 25.1025 11.028 24.1304C10.3327 23.3309 9.64029 22.2949 9.06304 21.0031ZM14.698 21.0031H18.9369C18.3597 22.2949 17.6672 23.3309 16.972 24.1304C16.1237 25.106 15.3038 25.7361 14.698 26.1267V21.0031ZM20.4493 21.0031H24.479C22.7159 23.6393 19.9825 25.5612 16.7874 26.2813C17.1893 25.932 17.6085 25.5296 18.0263 25.0493C18.9065 24.037 19.7742 22.6992 20.4493 21.0031Z" fill="#ED1A3A"/>
</svg>
