<svg width="18" height="17" viewBox="0 0 18 17" fill="none" xmlns="http://www.w3.org/2000/svg">
<path d="M4.78893 0.309082C5.59919 0.321685 6.39178 0.547872 7.08666 0.964799C7.78154 1.38173 8.3541 1.97463 8.74653 2.68364C9.13895 1.97463 9.71151 1.38173 10.4064 0.964799C11.1013 0.547872 11.8939 0.321685 12.7041 0.309082C13.9958 0.365201 15.2127 0.930248 16.0891 1.88077C16.9655 2.8313 17.43 4.09004 17.3813 5.382C17.3813 10.257 9.49775 15.8876 9.16243 16.1265L8.74653 16.4208L8.33062 16.1265C7.9953 15.8891 0.111769 10.257 0.111769 5.382C0.0630188 4.09004 0.527575 2.8313 1.40395 1.88077C2.28032 0.930248 3.49727 0.365201 4.78893 0.309082ZM8.74653 14.6493C11.0873 12.9007 15.9422 8.60493 15.9422 5.382C15.9913 4.47155 15.6785 3.57858 15.0719 2.89785C14.4654 2.21713 13.6142 1.80387 12.7041 1.74821C11.794 1.80387 10.9429 2.21713 10.3363 2.89785C9.72971 3.57858 9.4169 4.47155 9.46609 5.382H8.02696C8.07615 4.47155 7.76334 3.57858 7.15675 2.89785C6.55016 2.21713 5.69901 1.80387 4.78893 1.74821C3.87885 1.80387 3.0277 2.21713 2.42111 2.89785C1.81452 3.57858 1.50171 4.47155 1.55089 5.382C1.55089 8.60636 6.40579 12.9007 8.74653 14.6493Z" fill="white"/>
</svg>
