<svg width="30" height="30" viewBox="0 0 30 30" fill="none" xmlns="http://www.w3.org/2000/svg">
<path d="M12.0469 14.8128L0.816925 18.8791C0.415675 19.0253 0.115675 19.3653 0.0219252 19.7828C-0.0705748 20.2003 0.0556752 20.6366 0.359425 20.9378L3.85068 24.4291L0.375675 27.9053C-0.113075 28.3941 -0.113075 29.1841 0.375675 29.6728C0.619425 29.9166 0.939425 30.0391 1.25943 30.0391C1.57943 30.0391 1.89943 29.9166 2.14318 29.6728L5.61818 26.1978L9.10943 29.6891C9.34568 29.9253 9.66443 30.0553 9.99318 30.0553C10.0832 30.0553 10.1757 30.0453 10.2644 30.0253C10.6819 29.9328 11.0232 29.6328 11.1694 29.2303L15.2369 18.0003L15.2444 17.9791C15.5557 17.0691 15.3257 16.0816 14.6457 15.4016C13.9669 14.7228 12.9819 14.4928 12.0494 14.8116L12.0469 14.8128ZM9.48693 26.5316L3.51568 20.5603L12.8794 17.1628L9.48693 26.5316ZM30.0094 12.5391C30.0094 19.4316 24.4019 25.0391 17.5094 25.0391C16.8182 25.0391 16.2594 24.4791 16.2594 23.7891C16.2594 23.0991 16.8182 22.5391 17.5094 22.5391C23.0232 22.5391 27.5094 18.0528 27.5094 12.5391C27.5094 7.02531 23.0232 2.53906 17.5094 2.53906C11.9957 2.53906 7.50943 7.02531 7.50943 12.5391C7.50943 13.2291 6.95068 13.7891 6.25943 13.7891C5.56818 13.7891 5.00943 13.2291 5.00943 12.5391C5.00943 5.64656 10.6169 0.0390625 17.5094 0.0390625C24.4019 0.0390625 30.0094 5.64656 30.0094 12.5391ZM22.5094 12.5391C22.5094 9.78156 20.2669 7.53906 17.5094 7.53906C15.4807 7.53906 13.6669 8.75031 12.8894 10.6241C12.6232 11.2616 11.8919 11.5628 11.2544 11.2991C10.6169 11.0353 10.3144 10.3028 10.5794 9.66531C11.7469 6.85406 14.4657 5.03906 17.5094 5.03906C21.6457 5.03906 25.0094 8.40281 25.0094 12.5391C25.0094 15.5853 23.1919 18.3053 20.3782 19.4703C20.2219 19.5353 20.0594 19.5666 19.8994 19.5666C19.4082 19.5666 18.9432 19.2753 18.7444 18.7941C18.4807 18.1566 18.7832 17.4253 19.4207 17.1616C21.2969 16.3841 22.5094 14.5703 22.5094 12.5403V12.5391Z" fill="#B88669"/>
</svg>
