<svg width="28" height="28" viewBox="0 0 28 28" fill="none" xmlns="http://www.w3.org/2000/svg">
<path d="M24.6808 23.0311C26.8234 20.5098 27.9999 17.3087 27.9999 13.9999C27.9999 10.6911 26.8234 7.4901 24.6808 4.96876L25.6841 3.96543C25.9029 3.74651 26.0257 3.44966 26.0256 3.14018C26.0255 2.8307 25.9024 2.53394 25.6835 2.31518C25.4646 2.09642 25.1677 1.97358 24.8583 1.97369C24.5488 1.9738 24.252 2.09685 24.0333 2.31576L23.0299 3.31909C20.5086 1.17642 17.3076 0 13.9988 0C10.69 0 7.48893 1.17642 4.96759 3.31909L3.96426 2.31576C3.74407 2.10339 3.44929 1.986 3.14339 1.98888C2.83749 1.99175 2.54496 2.11465 2.3288 2.33112C2.11264 2.54758 1.99015 2.84028 1.98771 3.14619C1.98527 3.45209 2.10308 3.74671 2.31576 3.96659L3.31909 4.96993C1.17642 7.49127 0 10.6923 0 14.0011C0 17.3099 1.17642 20.5109 3.31909 23.0323L2.31576 24.0356C2.20441 24.1433 2.11562 24.2721 2.05458 24.4145C1.99354 24.5569 1.96147 24.71 1.96023 24.8649C1.959 25.0198 1.98862 25.1734 2.04739 25.3167C2.10615 25.4601 2.19287 25.5903 2.30249 25.6997C2.41211 25.8092 2.54243 25.8957 2.68584 25.9543C2.82926 26.0128 2.98291 26.0422 3.13782 26.0408C3.29272 26.0393 3.44579 26.007 3.58808 25.9458C3.73038 25.8846 3.85905 25.7956 3.96659 25.6841L4.96993 24.6808C7.49127 26.8234 10.6923 27.9999 14.0011 27.9999C17.3099 27.9999 20.5109 26.8234 23.0323 24.6808L24.0356 25.6841C24.2558 25.8965 24.5506 26.0138 24.8565 26.011C25.1624 26.0081 25.4549 25.8852 25.671 25.6687C25.8872 25.4523 26.0097 25.1596 26.0121 24.8537C26.0146 24.5478 25.8968 24.2531 25.6841 24.0333L24.6808 23.0311ZM25.6666 13.9999C25.6687 16.6908 24.7359 19.2988 23.0276 21.3779L18.8614 17.2118C19.4951 16.2604 19.8332 15.143 19.8332 13.9999C19.8332 12.8569 19.4951 11.7394 18.8614 10.7881L23.0276 6.62193C24.7359 8.70101 25.6687 11.309 25.6666 13.9999ZM10.4999 13.9999C10.4999 13.3077 10.7052 12.631 11.0898 12.0554C11.4744 11.4799 12.021 11.0313 12.6605 10.7663C13.3001 10.5014 14.0038 10.4321 14.6827 10.5672C15.3617 10.7022 15.9853 11.0356 16.4748 11.5251C16.9643 12.0145 17.2976 12.6382 17.4327 13.3171C17.5677 13.996 17.4984 14.6998 17.2335 15.3393C16.9686 15.9789 16.52 16.5255 15.9444 16.9101C15.3688 17.2947 14.6922 17.4999 13.9999 17.4999C13.0717 17.4999 12.1814 17.1312 11.5251 16.4748C10.8687 15.8184 10.4999 14.9282 10.4999 13.9999ZM13.9999 2.33326C16.6908 2.33111 19.2988 3.26397 21.3779 4.97226L17.2118 9.13843C16.2604 8.50476 15.143 8.16666 13.9999 8.16666C12.8569 8.16666 11.7394 8.50476 10.7881 9.13843L6.62193 4.97226C8.70101 3.26397 11.309 2.33111 13.9999 2.33326ZM2.33326 13.9999C2.33111 11.309 3.26397 8.70101 4.97226 6.62193L9.13843 10.7881C8.50476 11.7394 8.16666 12.8569 8.16666 13.9999C8.16666 15.143 8.50476 16.2604 9.13843 17.2118L4.97226 21.3779C3.26397 19.2988 2.33111 16.6908 2.33326 13.9999ZM13.9999 25.6666C11.309 25.6687 8.70101 24.7359 6.62193 23.0276L10.7881 18.8614C11.7394 19.4951 12.8569 19.8332 13.9999 19.8332C15.143 19.8332 16.2604 19.4951 17.2118 18.8614L21.3779 23.0276C19.2988 24.7359 16.6908 25.6687 13.9999 25.6666Z" fill="#B88669"/>
</svg>
