<svg width="29" height="27" viewBox="0 0 29 27" fill="none" xmlns="http://www.w3.org/2000/svg">
<path d="M22.9583 5.04134H20.5417V3.83301C20.5417 2.8716 20.1597 1.94957 19.4799 1.26975C18.8001 0.589926 17.8781 0.208008 16.9167 0.208008H3.625C2.66359 0.208008 1.74156 0.589926 1.06174 1.26975C0.381919 1.94957 0 2.8716 0 3.83301L0 21.958H2.46621C2.43512 22.1579 2.41856 22.3599 2.41667 22.5622C2.41667 23.6838 2.86224 24.7595 3.65536 25.5527C4.44848 26.3458 5.52419 26.7913 6.64583 26.7913C7.76748 26.7913 8.84318 26.3458 9.63631 25.5527C10.4294 24.7595 10.875 23.6838 10.875 22.5622C10.8731 22.3599 10.8565 22.1579 10.8255 21.958H18.1745C18.1435 22.1579 18.1269 22.3599 18.125 22.5622C18.125 23.6838 18.5706 24.7595 19.3637 25.5527C20.1568 26.3458 21.2325 26.7913 22.3542 26.7913C23.4758 26.7913 24.5515 26.3458 25.3446 25.5527C26.1378 24.7595 26.5833 23.6838 26.5833 22.5622C26.5814 22.3599 26.5649 22.1579 26.5338 21.958H29V11.083C28.9981 9.48125 28.3609 7.94564 27.2283 6.81302C26.0957 5.68041 24.5601 5.04326 22.9583 5.04134ZM22.9583 7.45801C23.9197 7.45801 24.8418 7.83993 25.5216 8.51975C26.2014 9.19957 26.5833 10.1216 26.5833 11.083V12.2913H20.5417V7.45801H22.9583ZM8.45833 22.5622C8.45833 23.0429 8.26737 23.5039 7.92746 23.8438C7.58755 24.1837 7.12654 24.3747 6.64583 24.3747C6.16513 24.3747 5.70411 24.1837 5.3642 23.8438C5.02429 23.5039 4.83333 23.0429 4.83333 22.5622C4.83408 22.3557 4.87215 22.151 4.94571 21.958H8.34596C8.41952 22.151 8.45759 22.3557 8.45833 22.5622ZM18.125 19.5413H2.41667V3.83301C2.41667 3.51254 2.54397 3.20519 2.77058 2.97859C2.99719 2.75198 3.30453 2.62467 3.625 2.62467H16.9167C17.2371 2.62467 17.5445 2.75198 17.7711 2.97859C17.9977 3.20519 18.125 3.51254 18.125 3.83301V19.5413ZM24.1667 22.5622C24.1667 23.0429 23.9757 23.5039 23.6358 23.8438C23.2959 24.1837 22.8349 24.3747 22.3542 24.3747C21.8735 24.3747 21.4124 24.1837 21.0725 23.8438C20.7326 23.5039 20.5417 23.0429 20.5417 22.5622C20.5422 22.3556 20.5803 22.1509 20.654 21.958H24.0543C24.1281 22.1509 24.1661 22.3556 24.1667 22.5622ZM20.5417 19.5413V14.708H26.5833V19.5413H20.5417Z" fill="#B88669"/>
</svg>
