<svg width="12" height="12" viewBox="0 0 12 12" fill="none" xmlns="http://www.w3.org/2000/svg">
<path fill-rule="evenodd" clip-rule="evenodd" d="M7.75 1.33366V0.750326C7.75 0.428326 8.01133 0.166992 8.33333 0.166992C8.65533 0.166992 8.91667 0.428326 8.91667 0.750326V1.33366C10.2052 1.33366 11.25 2.37841 11.25 3.66699V9.50033C11.25 10.7889 10.2052 11.8337 8.91667 11.8337C7.24833 11.8337 4.75108 11.8337 3.08333 11.8337C1.79475 11.8337 0.75 10.7889 0.75 9.50033V3.66699C0.75 2.37841 1.79475 1.33366 3.08333 1.33366V0.750326C3.08333 0.428326 3.34467 0.166992 3.66667 0.166992C3.98867 0.166992 4.25 0.428326 4.25 0.750326V1.33366H7.75ZM10.0833 6.00033H1.91667V9.50033C1.91667 10.1443 2.43875 10.667 3.08333 10.667H8.91667C9.56067 10.667 10.0833 10.1443 10.0833 9.50033V6.00033ZM8.91667 2.50033V3.08366C8.91667 3.40566 8.65533 3.66699 8.33333 3.66699C8.01133 3.66699 7.75 3.40566 7.75 3.08366V2.50033H4.25V3.08366C4.25 3.40566 3.98867 3.66699 3.66667 3.66699C3.34467 3.66699 3.08333 3.40566 3.08333 3.08366V2.50033C2.43875 2.50033 1.91667 3.02241 1.91667 3.66699V4.83366H10.0833V3.66699C10.0833 3.02241 9.56067 2.50033 8.91667 2.50033Z" fill="#B88669"/>
</svg>
