<svg width="13" height="13" viewBox="0 0 13 13" fill="none" xmlns="http://www.w3.org/2000/svg">
<g clip-path="url(#clip0_1_169)">
<path d="M6.49935 0.541992C5.3209 0.541992 4.16892 0.891442 3.18908 1.54615C2.20924 2.20086 1.44554 3.13143 0.994569 4.22017C0.543597 5.30891 0.425602 6.50694 0.655506 7.66274C0.88541 8.81854 1.45289 9.88022 2.28617 10.7135C3.11946 11.5468 4.18114 12.1143 5.33694 12.3442C6.49274 12.5741 7.69076 12.4561 8.77951 12.0051C9.86825 11.5541 10.7988 10.7904 11.4535 9.8106C12.1082 8.83076 12.4577 7.67877 12.4577 6.50033C12.4558 4.92065 11.8275 3.40621 10.7105 2.28921C9.59347 1.17221 8.07903 0.543856 6.49935 0.541992ZM6.49935 11.3753C5.53517 11.3753 4.59264 11.0894 3.79095 10.5537C2.98926 10.0181 2.36442 9.2567 1.99544 8.36591C1.62646 7.47512 1.52992 6.49492 1.71802 5.54926C1.90613 4.6036 2.37042 3.73496 3.05221 3.05318C3.73399 2.3714 4.60263 1.9071 5.54829 1.719C6.49394 1.53089 7.47414 1.62744 8.36493 1.99641C9.25572 2.36539 10.0171 2.99023 10.5528 3.79192C11.0884 4.59361 11.3744 5.53614 11.3744 6.50033C11.3728 7.79277 10.8587 9.03183 9.94476 9.94573C9.03086 10.8596 7.7918 11.3737 6.49935 11.3753Z" fill="#B88669"/>
<path d="M7.04232 6.27542V3.24967C7.04232 3.10602 6.98525 2.96824 6.88367 2.86666C6.78208 2.76508 6.64431 2.70801 6.50065 2.70801C6.35699 2.70801 6.21922 2.76508 6.11763 2.86666C6.01605 2.96824 5.95898 3.10602 5.95898 3.24967V6.49967C5.95902 6.64332 6.0161 6.78107 6.11769 6.88263L7.74269 8.50763C7.84485 8.6063 7.98168 8.6609 8.1237 8.65966C8.26572 8.65843 8.40158 8.60146 8.50201 8.50103C8.60244 8.40061 8.65941 8.26475 8.66064 8.12273C8.66188 7.9807 8.60728 7.84388 8.50861 7.74172L7.04232 6.27542Z" fill="#B88669"/>
</g>
<defs>
<clipPath id="clip0_1_169">
<rect width="13" height="13" fill="white"/>
</clipPath>
</defs>
</svg>
