<svg width="19" height="19" viewBox="0 0 19 19" fill="none" xmlns="http://www.w3.org/2000/svg">
<g clip-path="url(#clip0_699_4197)">
<path d="M18.8809 9.8291C18.8809 14.3214 15.5895 18.0448 11.2871 18.7198V12.4307H13.3842L13.7832 9.8291H11.2871V8.1409C11.2871 7.42898 11.6359 6.73535 12.7538 6.73535H13.8887V4.52051C13.8887 4.52051 12.8586 4.34473 11.8739 4.34473C9.81828 4.34473 8.47461 5.59066 8.47461 7.84629V9.8291H6.18945V12.4307H8.47461V18.7198C4.17219 18.0448 0.880859 14.3214 0.880859 9.8291C0.880859 4.85871 4.91047 0.829102 9.88086 0.829102C14.8512 0.829102 18.8809 4.85871 18.8809 9.8291Z" fill="#1877F2"/>
<path d="M13.3842 12.4307L13.7832 9.8291H11.2871V8.14086C11.2871 7.42913 11.6358 6.73535 12.7538 6.73535H13.8887V4.52051C13.8887 4.52051 12.8587 4.34473 11.874 4.34473C9.81825 4.34473 8.47461 5.59066 8.47461 7.84629V9.8291H6.18945V12.4307H8.47461V18.7197C8.93284 18.7916 9.40245 18.8291 9.88086 18.8291C10.3593 18.8291 10.8289 18.7916 11.2871 18.7197V12.4307H13.3842Z" fill="white"/>
</g>
<defs>
<clipPath id="clip0_699_4197">
<rect width="18" height="18" fill="white" transform="translate(0.880859 0.829102)"/>
</clipPath>
</defs>
</svg>
