<svg width="17" height="17" viewBox="0 0 17 17" fill="none" xmlns="http://www.w3.org/2000/svg">
<g clip-path="url(#clip0_699_4189)">
<path d="M16.2768 7.48408L9.75054 7.48376C9.46235 7.48376 9.22876 7.71733 9.22876 8.00551V10.0904C9.22876 10.3785 9.46235 10.6121 9.75051 10.6121H13.4257C13.0233 11.6565 12.2721 12.5312 11.3138 13.0869L12.8809 15.7997C15.3947 14.3459 16.8809 11.795 16.8809 8.93939C16.8809 8.5328 16.8509 8.24214 16.791 7.91486C16.7454 7.6662 16.5296 7.48408 16.2768 7.48408Z" fill="#167EE6"/>
<path d="M8.88096 13.7446C7.08239 13.7446 5.51227 12.7619 4.66899 11.3077L1.9563 12.8713C3.33677 15.2639 5.92283 16.875 8.88096 16.875C10.3321 16.875 11.7014 16.4843 12.881 15.8034V15.7997L11.3139 13.0869C10.597 13.5026 9.76755 13.7446 8.88096 13.7446Z" fill="#12B347"/>
<path d="M12.8809 15.8033V15.7996L11.3138 13.0868C10.597 13.5025 9.76752 13.7445 8.88086 13.7445V16.8749C10.332 16.8749 11.7014 16.4842 12.8809 15.8033Z" fill="#0F993E"/>
<path d="M4.0113 8.87494C4.0113 7.98841 4.25323 7.15901 4.66889 6.44222L1.9562 4.87866C1.27155 6.05451 0.880859 7.42007 0.880859 8.87494C0.880859 10.3298 1.27155 11.6954 1.9562 12.8712L4.66889 11.3077C4.25323 10.5909 4.0113 9.76147 4.0113 8.87494Z" fill="#FFD500"/>
<path d="M8.88096 4.00544C10.0538 4.00544 11.1311 4.42219 11.9726 5.11541C12.1802 5.28641 12.4819 5.27406 12.672 5.08391L14.1492 3.60672C14.365 3.39097 14.3496 3.03781 14.1191 2.83787C12.7093 1.61478 10.8749 0.875 8.88096 0.875C5.92283 0.875 3.33677 2.48616 1.9563 4.87872L4.66899 6.44228C5.51227 4.98812 7.08239 4.00544 8.88096 4.00544Z" fill="#FF4B26"/>
<path d="M11.9725 5.11541C12.1801 5.28641 12.4818 5.27406 12.672 5.08391L14.1491 3.60672C14.3649 3.39097 14.3495 3.03781 14.119 2.83788C12.7092 1.61475 10.8748 0.875 8.88086 0.875V4.00544C10.0537 4.00544 11.131 4.42219 11.9725 5.11541Z" fill="#D93F21"/>
</g>
<defs>
<clipPath id="clip0_699_4189">
<rect width="16" height="16" fill="white" transform="translate(0.880859 0.875)"/>
</clipPath>
</defs>
</svg>
