<svg width="18" height="17" viewBox="0 0 18 17" fill="none" xmlns="http://www.w3.org/2000/svg">
<path d="M5.02721 0.448914C5.83747 0.461517 6.63007 0.687703 7.32495 1.10463C8.01982 1.52156 8.59239 2.11446 8.98481 2.82347C9.37723 2.11446 9.94979 1.52156 10.6447 1.10463C11.3395 0.687703 12.1321 0.461517 12.9424 0.448914C14.2341 0.505033 15.451 1.07008 16.3274 2.02061C17.2038 2.97113 17.6683 4.22988 17.6196 5.52183C17.6196 10.3969 9.73603 16.0275 9.40071 16.2664L8.98481 16.5607L8.5689 16.2664C8.23358 16.0289 0.35005 10.3969 0.35005 5.52183C0.3013 4.22988 0.765856 2.97113 1.64223 2.02061C2.5186 1.07008 3.73555 0.505033 5.02721 0.448914ZM8.98481 14.7891C11.3255 13.0405 16.1804 8.74476 16.1804 5.52183C16.2296 4.61138 15.9168 3.71841 15.3102 3.03769C14.7036 2.35696 13.8525 1.9437 12.9424 1.88804C12.0323 1.9437 11.1812 2.35696 10.5746 3.03769C9.96799 3.71841 9.65518 4.61138 9.70437 5.52183H8.26524C8.31443 4.61138 8.00162 3.71841 7.39503 3.03769C6.78844 2.35696 5.93729 1.9437 5.02721 1.88804C4.11713 1.9437 3.26598 2.35696 2.65939 3.03769C2.0528 3.71841 1.73999 4.61138 1.78918 5.52183C1.78918 8.7462 6.64407 13.0405 8.98481 14.7891Z" fill="white"/>
</svg>
