<svg width="26" height="26" viewBox="0 0 26 26" fill="none" xmlns="http://www.w3.org/2000/svg">
<g clip-path="url(#clip0_699_5282)">
<path d="M23.7246 4.125H3.11914C1.91006 4.125 0.921875 5.10884 0.921875 6.32227V19.5059C0.921875 20.7197 1.91069 21.7031 3.11914 21.7031H23.7246C24.9337 21.7031 25.9219 20.7193 25.9219 19.5059V6.32227C25.9219 5.10854 24.9332 4.125 23.7246 4.125ZM23.3872 5.58984C22.6768 6.30259 14.3323 14.6743 13.9895 15.0183C13.7031 15.3055 13.1408 15.3057 12.8543 15.0183L3.45654 5.58984H23.3872ZM2.38672 19.2366V6.59155L8.68872 12.9141L2.38672 19.2366ZM3.45654 20.2383L9.72285 13.9516L11.8168 16.0524C12.675 16.9133 14.1691 16.9129 15.027 16.0524L17.1209 13.9516L23.3872 20.2383H3.45654ZM24.457 19.2366L18.155 12.9141L24.457 6.59155V19.2366Z" fill="#7D7D7D"/>
</g>
<defs>
<clipPath id="clip0_699_5282">
<rect width="25" height="25" fill="white" transform="translate(0.921875 0.414062)"/>
</clipPath>
</defs>
</svg>
