<svg width="16" height="20" viewBox="0 0 16 20" fill="none" xmlns="http://www.w3.org/2000/svg">
<path d="M15.0171 19.2321H13.4323V15.236C13.4317 14.6148 13.1846 14.0192 12.7453 13.5799C12.306 13.1406 11.7104 12.8935 11.0892 12.8929H4.68183C4.06059 12.8935 3.46497 13.1406 3.02568 13.5799C2.5864 14.0192 2.33933 14.6148 2.3387 15.236V19.2321H0.753906V15.236C0.755164 14.1947 1.1694 13.1963 1.90576 12.46C2.64211 11.7236 3.64046 11.3094 4.68183 11.3081H11.0892C12.1305 11.3094 13.1289 11.7236 13.8652 12.46C14.6016 13.1963 15.0158 14.1947 15.0171 15.236V19.2321Z" fill="white"/>
<path d="M7.88526 9.72364C6.94493 9.72364 6.02571 9.44479 5.24386 8.92237C4.462 8.39996 3.85262 7.65742 3.49277 6.78867C3.13292 5.91992 3.03877 4.96397 3.22222 4.0417C3.40567 3.11944 3.85848 2.27229 4.52339 1.60738C5.18831 0.942462 6.03546 0.48965 6.95772 0.3062C7.87998 0.122751 8.83593 0.216904 9.70468 0.576753C10.5734 0.936602 11.316 1.54598 11.8384 2.32784C12.3608 3.1097 12.6397 4.02891 12.6397 4.96924C12.6384 6.2298 12.1371 7.43837 11.2457 8.32972C10.3544 9.22106 9.14581 9.72238 7.88526 9.72364ZM7.88526 1.79964C7.25837 1.79964 6.64556 1.98554 6.12432 2.33382C5.60309 2.6821 5.19683 3.17712 4.95693 3.75629C4.71703 4.33546 4.65426 4.97276 4.77656 5.5876C4.89886 6.20244 5.20074 6.76721 5.64401 7.21048C6.08729 7.65376 6.65206 7.95564 7.2669 8.07793C7.88174 8.20023 8.51904 8.13747 9.09821 7.89757C9.67738 7.65767 10.1724 7.25141 10.5207 6.73017C10.869 6.20894 11.0549 5.59613 11.0549 4.96924C11.0549 4.12861 10.7209 3.32241 10.1265 2.728C9.53208 2.13358 8.72589 1.79964 7.88526 1.79964Z" fill="white"/>
</svg>
